<?xml version="1.0" standalone="no"?>
<!DOCTYPE svg PUBLIC "-//W3C//DTD SVG 20010904//EN"
 "http://www.w3.org/TR/2001/REC-SVG-20010904/DTD/svg10.dtd">
<svg version="1.0" xmlns="http://www.w3.org/2000/svg"
 width="700.000000pt" height="700.000000pt" viewBox="0 0 700.000000 700.000000"
 preserveAspectRatio="xMidYMid meet">
<metadata>
Created by potrace 1.11, written by Peter Selinger 2001-2013
</metadata>
<g transform="translate(0.000000,700.000000) scale(0.100000,-0.100000)"
fill="#000000" stroke="none">
<path d="M1190 6775 c-140 -32 -336 -137 -425 -229 -126 -131 -171 -261 -169
-486 3 -182 38 -337 145 -626 56 -154 59 -184 21 -264 -33 -69 -72 -121 -187
-246 -124 -134 -195 -230 -245 -329 -121 -243 -95 -509 68 -687 99 -107 249
-192 549 -309 120 -47 174 -84 213 -145 43 -69 54 -129 46 -268 -6 -134 -8
-148 -25 -256 -19 -114 -20 -120 -26 -164 -37 -284 -11 -477 84 -623 94 -144
250 -253 472 -328 68 -24 105 -25 235 -7 79 10 230 6 301 -8 138 -29 225 -90
318 -225 78 -113 232 -321 270 -365 181 -210 376 -333 572 -360 87 -11 325 -3
413 15 14 3 36 7 49 10 107 20 327 92 408 133 34 18 42 19 54 7 12 -12 36 0
170 84 85 53 162 95 170 93 8 -3 43 -24 79 -47 36 -23 173 -109 305 -190 132
-82 296 -184 365 -226 69 -43 130 -83 137 -88 7 -6 14 -11 17 -11 5 0 140 -82
196 -119 14 -9 90 -45 170 -80 146 -64 203 -90 340 -153 77 -36 112 -43 282
-54 114 -8 155 6 225 77 104 105 109 238 13 337 -63 66 -135 78 -207 36 -43
-25 -46 -25 -181 -19 -75 4 -155 8 -177 10 -37 3 -234 85 -420 176 -44 21
-134 72 -200 113 -66 41 -142 89 -170 105 -27 16 -108 66 -180 110 -71 44
-171 105 -222 136 -65 39 -101 68 -123 100 -16 24 -30 47 -30 50 0 4 22 35 48
69 99 125 172 258 224 404 16 47 31 94 34 105 2 10 6 27 9 37 3 10 8 33 10 51
3 19 7 45 10 59 3 14 6 68 6 120 2 171 -44 266 -161 333 -56 32 -147 58 -320
92 -191 37 -257 61 -313 114 -51 47 -65 102 -43 169 13 40 97 185 181 312 164
249 251 413 281 530 68 266 -40 454 -336 583 -86 38 -228 82 -326 101 -10 2
-30 7 -44 10 -51 12 -254 45 -277 46 -20 0 -36 41 -34 88 0 24 11 84 22 135
11 51 23 103 25 117 3 14 11 52 19 85 7 33 16 78 19 100 4 22 11 65 16 95 15
93 6 335 -17 415 -27 97 -83 200 -146 265 -183 194 -347 274 -557 273 -138 0
-231 -24 -485 -125 -164 -65 -213 -80 -270 -84 -92 -7 -108 4 -209 137 -171
224 -348 422 -460 514 -65 53 -201 130 -272 154 -88 30 -240 37 -334 16z"/>
</g>
</svg>
