<?xml version="1.0" standalone="no"?>
<!DOCTYPE svg PUBLIC "-//W3C//DTD SVG 20010904//EN"
 "http://www.w3.org/TR/2001/REC-SVG-20010904/DTD/svg10.dtd">
<svg version="1.0" xmlns="http://www.w3.org/2000/svg"
 width="267.000000pt" height="267.000000pt" viewBox="0 0 267.000000 267.000000"
 preserveAspectRatio="xMidYMid meet">
<metadata>
Created by potrace 1.11, written by Peter Selinger 2001-2013
</metadata>
<g transform="translate(0.000000,267.000000) scale(0.100000,-0.100000)"
fill="#000000" stroke="none">
<path d="M1313 2654 c-47 -20 -138 -136 -188 -239 -24 -49 -58 -139 -75 -199
-16 -60 -37 -120 -45 -132 -8 -13 -15 -33 -15 -44 0 -25 -36 -41 -82 -34 -78
11 -205 6 -260 -10 -127 -37 -180 -140 -129 -251 21 -46 49 -74 108 -107 22
-13 63 -36 89 -53 26 -16 67 -34 90 -40 38 -9 41 -12 29 -28 -14 -19 -120 -54
-284 -92 -185 -45 -291 -114 -291 -192 0 -29 6 -36 53 -63 65 -37 136 -64 252
-96 50 -14 104 -31 120 -39 17 -7 46 -18 65 -24 54 -18 80 -39 80 -66 0 -29
-31 -59 -63 -62 -31 -2 -162 -49 -198 -70 -26 -15 -41 -38 -44 -68 -6 -48 77
-116 230 -190 102 -49 125 -57 195 -72 23 -5 208 -5 289 0 l35 2 -3 -241 -2
-240 50 -1 c29 -1 54 4 58 10 4 7 8 64 9 127 4 369 3 342 22 336 42 -13 94
-18 187 -18 137 0 198 17 362 99 142 71 204 141 173 197 -17 34 -58 53 -165
81 -53 14 -107 32 -121 41 -32 22 -33 68 -1 89 24 15 167 67 167 60 0 -2 18 2
40 10 22 8 40 12 40 10 0 -2 51 13 113 34 115 39 193 80 204 106 9 25 -6 63
-39 100 -50 58 -77 68 -383 152 -133 36 -200 66 -198 88 1 6 60 29 131 51 199
63 246 102 251 208 2 65 -15 104 -62 140 -63 48 -110 59 -262 60 l-120 1 -17
35 c-9 19 -22 69 -28 110 -34 221 -94 381 -174 460 -79 78 -126 94 -193 64z"/>
</g>
</svg>
